<svg width="350" height="350" xmlns="http://www.w3.org/2000/svg">

 <g>
  <title>background</title>
  <rect fill="none" id="canvas_background" height="402" width="582" y="-1" x="-1"/>
 </g>
 <g>
  <title>Layer 1</title>
  <rect stroke="null" fill="#000000" x="229" y="135" width="150" height="80.000004" id="svg_6" transform="rotate(90 304.00000000000006,175.00000000000003) " rx="10"/>
  <rect stroke="null" fill="#030033" x="192.5" y="45.650757" width="150" height="79.698484" id="svg_5" transform="rotate(45 267.5,85.5) " rx="10"/>
  <rect stroke="null" fill="#070056" x="101" y="7" width="150" height="79.999998" id="svg_1" rx="10"/>
  <rect stroke="null" fill="#0303af" x="10.75" y="43.547204" width="150" height="80.405592" id="svg_3" transform="rotate(-45 85.74999999999999,83.75) " rx="10"/>
  <rect stroke="null" fill="#1447ff" x="-26.999996" y="133.999997" width="150" height="80.000007" id="svg_8" transform="rotate(90 48.000003814697244,174.00000000000003) " rx="10"/>
  <rect stroke="null" fill="#0f7bff" x="10.750002" y="224.047207" width="150" height="80.405593" id="svg_4" transform="rotate(45 85.74999999999999,264.25) " rx="10"/>
  <rect stroke="null" fill="#5eaeff" x="101" y="261.999996" width="150" height="80.000004" id="svg_2" rx="10"/>
  <rect stroke="null" fill="#91d4ff" x="192.5" y="224.650757" width="150" height="79.698486" id="svg_7" transform="rotate(135 267.5,264.5) " rx="10"/>
  <rect stroke="null" fill="#000000" x="263.999996" y="170" width="80.000004" height="80.000004" id="svg_9" transform="rotate(90 304.00000000000006,210.00000000000003) " rx="10"/>
 </g>
</svg>